#Comment line ignore any data following # character 
#Hierarchical Translation and Rotation (.htr) file 
[Header]	
#Header keywords are followed by a single value 
FileType HTR		#Single word string
DataType HTRS		#Translation followed by rotation and scale data
FileVersion 1		#integer
NumSegments 84		#integer
NumFrames 2		#integer
DataFrameRate 30		#integer, data frame rate in this file
EulerRotationOrder ZYX
CalibrationUnits mm
RotationUnits Degrees
GlobalAxisofGravity Y
BoneLengthAxis Y
ScaleFactor 1.00
[SegmentNames&Hierarchy]
#CHILD	PARENT
MASTER GLOBAL
root MASTER
chest root
L_mid_tent01 root
R_mid_tent01 root
spine01 root
Bip01_Neck chest
L_humerus chest
R_humerus chest
weapon_bone chest
Bip01_Head Bip01_Neck
eye_left_bone Bip01_Head
eye_right_bone Bip01_Head
L_forearm L_humerus
L_front_hand L_forearm
L_weapon_bone L_forearm
L_front_hand01_01 L_front_hand
L_front_hand02_01 L_front_hand
L_front_hand03_01 L_front_hand
L_front_hand01_02 L_front_hand01_01
L_front_hand02_02 L_front_hand02_01
L_front_hand03_02 L_front_hand03_01
R_forearm R_humerus
R_front_hand R_forearm
R_weapon_bone R_forearm
R_front_hand01_01 R_front_hand
R_front_hand02_01 R_front_hand
R_front_hand03_01 R_front_hand
R_front_hand01_02 R_front_hand01_01
R_front_hand02_02 R_front_hand02_01
R_front_hand03_02 R_front_hand03_01
null_rope01_connect L_mid_tent01
Rope1_Seg01 null_rope01_connect
Rope1_Seg02 Rope1_Seg01
Rope1_Seg03 Rope1_Seg02
Rope1_Seg04 Rope1_Seg03
Rope1_Seg05 Rope1_Seg04
Rope1_Seg06 Rope1_Seg05
Rope1_Seg07 Rope1_Seg06
Rope1_Seg09 Rope1_Seg07
L_mid_hand01 Rope1_Seg09
L_mid_hand02 Rope1_Seg09
L_mid_hand03 Rope1_Seg09
null_rope02_connect R_mid_tent01
Rope2_Seg01 null_rope02_connect
Rope2_Seg02 Rope2_Seg01
Rope2_Seg03 Rope2_Seg02
Rope2_Seg04 Rope2_Seg03
Rope2_Seg05 Rope2_Seg04
Rope2_Seg06 Rope2_Seg05
Rope2_Seg07 Rope2_Seg06
Rope2_Seg09 Rope2_Seg07
R_mid_hand01 Rope2_Seg09
R_mid_hand02 Rope2_Seg09
R_mid_hand03 Rope2_Seg09
spine02 spine01
spine03 spine02
pelvis spine03
null_rope03_connect pelvis
null_rope04_connect pelvis
Rope3_Seg01 null_rope03_connect
Rope3_Seg02 Rope3_Seg01
Rope3_Seg03 Rope3_Seg02
Rope3_Seg04 Rope3_Seg03
Rope3_Seg05 Rope3_Seg04
Rope3_Seg06 Rope3_Seg05
Rope3_Seg07 Rope3_Seg06
Rope3_Seg08 Rope3_Seg07
Rope3_Seg09 Rope3_Seg08
R_rear_hand01 Rope3_Seg09
R_rear_hand02 Rope3_Seg09
R_rear_hand03 Rope3_Seg09
Rope4_Seg01 null_rope04_connect
Rope4_Seg02 Rope4_Seg01
Rope4_Seg03 Rope4_Seg02
Rope4_Seg04 Rope4_Seg03
Rope4_Seg05 Rope4_Seg04
Rope4_Seg06 Rope4_Seg05
Rope4_Seg07 Rope4_Seg06
Rope4_Seg08 Rope4_Seg07
Rope4_Seg09 Rope4_Seg08
L_rear_hand01 Rope4_Seg09
L_rear_hand02 Rope4_Seg09
L_rear_hand03 Rope4_Seg09
[BasePosition]
#SegmentName Tx, Ty, Tz, Rx, Ry, Rz, BoneLength
MASTER 0.000000 0.000000 0.000000 -90.000000 0.000000 0.000000 10.000000 
root 0.000000 0.000000 0.000000 0.000000 0.000000 0.000000 10.000000 
chest 0.000000 0.000000 0.000000 0.000000 0.000000 0.000000 10.000000 
L_mid_tent01 0.000000 0.000000 0.000000 0.000000 0.000000 0.000000 10.000000 
R_mid_tent01 0.000000 0.000000 0.000000 0.000000 0.000000 0.000000 10.000000 
spine01 0.000000 0.000000 0.000000 0.000000 0.000000 0.000000 10.000000 
Bip01_Neck 0.000000 0.000000 0.000000 0.000000 0.000000 0.000000 10.000000 
L_humerus 0.000000 0.000000 0.000000 0.000000 0.000000 0.000000 10.000000 
R_humerus 0.000000 0.000000 0.000000 0.000000 0.000000 0.000000 10.000000 
weapon_bone 0.000000 0.000000 0.000000 0.000000 0.000000 0.000000 10.000000 
Bip01_Head 0.000000 0.000000 0.000000 0.000000 0.000000 0.000000 10.000000 
eye_left_bone 0.000000 0.000000 0.000000 0.000000 0.000000 0.000000 10.000000 
eye_right_bone 0.000000 0.000000 0.000000 0.000000 0.000000 0.000000 10.000000 
L_forearm 0.000000 0.000000 0.000000 0.000000 0.000000 0.000000 10.000000 
L_front_hand 0.000000 0.000000 0.000000 0.000000 0.000000 0.000000 10.000000 
L_weapon_bone 0.000000 0.000000 0.000000 0.000000 0.000000 0.000000 10.000000 
L_front_hand01_01 0.000000 0.000000 0.000000 0.000000 0.000000 0.000000 10.000000 
L_front_hand02_01 0.000000 0.000000 0.000000 0.000000 0.000000 0.000000 10.000000 
L_front_hand03_01 0.000000 0.000000 0.000000 0.000000 0.000000 0.000000 10.000000 
L_front_hand01_02 0.000000 0.000000 0.000000 0.000000 0.000000 0.000000 10.000000 
L_front_hand02_02 0.000000 0.000000 0.000000 0.000000 0.000000 0.000000 10.000000 
L_front_hand03_02 0.000000 0.000000 0.000000 0.000000 0.000000 0.000000 10.000000 
R_forearm 0.000000 0.000000 0.000000 0.000000 0.000000 0.000000 10.000000 
R_front_hand 0.000000 0.000000 0.000000 0.000000 0.000000 0.000000 10.000000 
R_weapon_bone 0.000000 0.000000 0.000000 0.000000 0.000000 0.000000 10.000000 
R_front_hand01_01 0.000000 0.000000 0.000000 0.000000 0.000000 0.000000 10.000000 
R_front_hand02_01 0.000000 0.000000 0.000000 0.000000 0.000000 0.000000 10.000000 
R_front_hand03_01 0.000000 0.000000 0.000000 0.000000 0.000000 0.000000 10.000000 
R_front_hand01_02 0.000000 0.000000 0.000000 0.000000 0.000000 0.000000 10.000000 
R_front_hand02_02 0.000000 0.000000 0.000000 0.000000 0.000000 0.000000 10.000000 
R_front_hand03_02 0.000000 0.000000 0.000000 0.000000 0.000000 0.000000 10.000000 
null_rope01_connect 0.000000 0.000000 0.000000 0.000000 0.000000 0.000000 10.000000 
Rope1_Seg01 0.000000 0.000000 0.000000 0.000000 0.000000 0.000000 10.000000 
Rope1_Seg02 0.000000 0.000000 0.000000 0.000000 0.000000 0.000000 10.000000 
Rope1_Seg03 0.000000 0.000000 0.000000 0.000000 0.000000 0.000000 10.000000 
Rope1_Seg04 0.000000 0.000000 0.000000 0.000000 0.000000 0.000000 10.000000 
Rope1_Seg05 0.000000 0.000000 0.000000 0.000000 0.000000 0.000000 10.000000 
Rope1_Seg06 0.000000 0.000000 0.000000 0.000000 0.000000 0.000000 10.000000 
Rope1_Seg07 0.000000 0.000000 0.000000 0.000000 0.000000 0.000000 10.000000 
Rope1_Seg09 0.000000 0.000000 0.000000 0.000000 0.000000 0.000000 10.000000 
L_mid_hand01 0.000000 0.000000 0.000000 0.000000 0.000000 0.000000 10.000000 
L_mid_hand02 0.000000 0.000000 0.000000 0.000000 0.000000 0.000000 10.000000 
L_mid_hand03 0.000000 0.000000 0.000000 0.000000 0.000000 0.000000 10.000000 
null_rope02_connect 0.000000 0.000000 0.000000 0.000000 0.000000 0.000000 10.000000 
Rope2_Seg01 0.000000 0.000000 0.000000 0.000000 0.000000 0.000000 10.000000 
Rope2_Seg02 0.000000 0.000000 0.000000 0.000000 0.000000 0.000000 10.000000 
Rope2_Seg03 0.000000 0.000000 0.000000 0.000000 0.000000 0.000000 10.000000 
Rope2_Seg04 0.000000 0.000000 0.000000 0.000000 0.000000 0.000000 10.000000 
Rope2_Seg05 0.000000 0.000000 0.000000 0.000000 0.000000 0.000000 10.000000 
Rope2_Seg06 0.000000 0.000000 0.000000 0.000000 0.000000 0.000000 10.000000 
Rope2_Seg07 0.000000 0.000000 0.000000 0.000000 0.000000 0.000000 10.000000 
Rope2_Seg09 0.000000 0.000000 0.000000 0.000000 0.000000 0.000000 10.000000 
R_mid_hand01 0.000000 0.000000 0.000000 0.000000 0.000000 0.000000 10.000000 
R_mid_hand02 0.000000 0.000000 0.000000 0.000000 0.000000 0.000000 10.000000 
R_mid_hand03 0.000000 0.000000 0.000000 0.000000 0.000000 0.000000 10.000000 
spine02 0.000000 0.000000 0.000000 0.000000 0.000000 0.000000 10.000000 
spine03 0.000000 0.000000 0.000000 0.000000 0.000000 0.000000 10.000000 
pelvis 0.000000 0.000000 0.000000 0.000000 0.000000 0.000000 10.000000 
null_rope03_connect 0.000000 0.000000 0.000000 0.000000 0.000000 0.000000 10.000000 
null_rope04_connect 0.000000 0.000000 0.000000 0.000000 0.000000 0.000000 10.000000 
Rope3_Seg01 0.000000 0.000000 0.000000 0.000000 0.000000 0.000000 10.000000 
Rope3_Seg02 0.000000 0.000000 0.000000 0.000000 0.000000 0.000000 10.000000 
Rope3_Seg03 0.000000 0.000000 0.000000 0.000000 0.000000 0.000000 10.000000 
Rope3_Seg04 0.000000 0.000000 0.000000 0.000000 0.000000 0.000000 10.000000 
Rope3_Seg05 0.000000 0.000000 0.000000 0.000000 0.000000 0.000000 10.000000 
Rope3_Seg06 0.000000 0.000000 0.000000 0.000000 0.000000 0.000000 10.000000 
Rope3_Seg07 0.000000 0.000000 0.000000 0.000000 0.000000 0.000000 10.000000 
Rope3_Seg08 0.000000 0.000000 0.000000 0.000000 0.000000 0.000000 10.000000 
Rope3_Seg09 0.000000 0.000000 0.000000 0.000000 0.000000 0.000000 10.000000 
R_rear_hand01 0.000000 0.000000 0.000000 0.000000 0.000000 0.000000 10.000000 
R_rear_hand02 0.000000 0.000000 0.000000 0.000000 0.000000 0.000000 10.000000 
R_rear_hand03 0.000000 0.000000 0.000000 0.000000 0.000000 0.000000 10.000000 
Rope4_Seg01 0.000000 0.000000 0.000000 0.000000 0.000000 0.000000 10.000000 
Rope4_Seg02 0.000000 0.000000 0.000000 0.000000 0.000000 0.000000 10.000000 
Rope4_Seg03 0.000000 0.000000 0.000000 0.000000 0.000000 0.000000 10.000000 
Rope4_Seg04 0.000000 0.000000 0.000000 0.000000 0.000000 0.000000 10.000000 
Rope4_Seg05 0.000000 0.000000 0.000000 0.000000 0.000000 0.000000 10.000000 
Rope4_Seg06 0.000000 0.000000 0.000000 0.000000 0.000000 0.000000 10.000000 
Rope4_Seg07 0.000000 0.000000 0.000000 0.000000 0.000000 0.000000 10.000000 
Rope4_Seg08 0.000000 0.000000 0.000000 0.000000 0.000000 0.000000 10.000000 
Rope4_Seg09 0.000000 0.000000 0.000000 0.000000 0.000000 0.000000 10.000000 
L_rear_hand01 0.000000 0.000000 0.000000 0.000000 0.000000 0.000000 10.000000 
L_rear_hand02 0.000000 0.000000 0.000000 0.000000 0.000000 0.000000 10.000000 
L_rear_hand03 0.000000 0.000000 0.000000 0.000000 0.000000 0.000000 10.000000 
#Beginning of Data. Separated by tabs
#Fr	Tx	Ty	Tz	Rx	Ry	Rz	SF
[MASTER]
33 0.000000 0.000000 0.000000 0.001660 0.001660 0.001660 0.000000
34 0.000000 0.000000 0.000000 0.001660 0.001660 0.001660 0.000000
[root]
33 -15.094336 -62.809258 1499.901489 -91.641594 -27.537027 -90.153923 1501.291992
34 -15.696895 -62.815258 1499.960571 -91.634155 -27.590237 -90.152664 1501.357300
[chest]
33 -84.512650 -34.090519 0.000000 -4.883928 1.981831 -178.071045 91.129311
34 -84.512650 -34.090519 0.000000 -4.883928 1.981831 -178.071045 91.129311
[L_mid_tent01]
33 27.299519 22.177546 -249.917984 4.186424 36.198460 81.895248 252.380875
34 27.299513 22.177555 -249.917984 4.057562 36.207737 81.682030 252.380875
[R_mid_tent01]
33 23.228794 24.509907 226.238495 159.760208 -47.284584 88.659866 228.744751
34 23.228794 24.509907 226.238495 160.026505 -47.197090 88.359901 228.744751
[spine01]
33 -0.361383 -0.195265 0.000000 0.840989 0.446373 15.483044 0.410763
34 -0.361383 -0.195265 0.000000 0.840989 0.446373 15.483044 0.410763
[Bip01_Neck]
33 165.484543 71.581718 0.000119 175.896118 1.177290 24.871183 180.302734
34 165.484543 71.581718 0.000119 175.896118 1.177290 24.871183 180.302734
[L_humerus]
33 -13.983130 -135.272980 -120.471481 -175.938812 75.354172 -85.840675 181.680161
34 -13.983130 -135.272980 -120.471481 -175.938812 75.354172 -85.840675 181.680161
[R_humerus]
33 -13.983309 -135.273102 125.287651 -151.401703 -64.595787 -126.359894 184.909012
34 -13.983309 -135.273102 125.287651 -151.401703 -64.595787 -126.359894 184.909012
[weapon_bone]
33 235.964890 -300.705902 0.000000 0.000000 -89.951546 -128.212341 382.234833
34 235.964890 -300.705902 0.000000 0.000000 -89.951546 -128.212341 382.234833
[Bip01_Head]
33 261.355835 108.959457 -2.864207 2.248029 5.843378 -62.458351 283.173523
34 261.355835 108.959465 -2.864205 2.248029 5.843377 -62.458344 283.173523
[eye_left_bone]
33 -24.626970 125.451866 -64.772606 0.000000 -90.000000 -99.840431 143.318359
34 -24.626970 125.451866 -64.772606 0.000000 -90.000000 -99.840431 143.318359
[eye_right_bone]
33 -24.626970 125.451866 64.327362 0.000000 -89.960434 80.159386 143.117676
34 -24.626970 125.451866 64.327362 0.000000 -89.960434 80.159386 143.117676
[L_forearm]
33 322.776093 0.000000 -0.000119 0.000071 -0.002346 -93.445839 322.776093
34 322.776093 0.000000 -0.000119 0.000071 -0.002346 -93.445839 322.776093
[L_front_hand]
33 241.149185 -0.042021 -3.300071 -178.667953 -1.835447 -27.422342 241.171753
34 241.149185 -0.042021 -3.300071 -178.667953 -1.835447 -27.422350 241.171753
[L_weapon_bone]
33 156.183838 0.000000 0.000000 0.001660 0.001660 0.001660 156.183838
34 156.183838 0.000000 0.000000 0.001660 0.001660 0.001660 156.183838
[L_front_hand01_01]
33 86.095154 20.947098 -0.655860 -0.366594 -0.477154 75.385582 88.609184
34 86.095154 20.947098 -0.655860 -0.366594 -0.477154 75.385574 88.609184
[L_front_hand02_01]
33 86.935165 -11.437475 24.513514 154.403519 -59.888931 -61.371990 91.046425
34 86.935165 -11.437475 24.513514 154.403519 -59.888931 -61.371990 91.046425
[L_front_hand03_01]
33 86.637497 -14.123976 -20.424902 -153.913849 58.118122 -62.702866 90.126129
34 86.637497 -14.123976 -20.424902 -153.913864 58.118130 -62.702873 90.126129
[L_front_hand01_02]
33 71.020905 -0.000179 0.000030 0.001534 0.001777 -8.380171 71.020905
34 71.020905 -0.000179 0.000030 0.000334 -0.002323 -106.379684 71.020905
[L_front_hand02_02]
33 71.020927 -0.000119 0.000060 0.001534 0.001777 -8.380171 71.020927
34 71.020927 -0.000119 0.000060 0.000334 -0.002323 -106.379684 71.020927
[L_front_hand03_02]
33 71.020905 -0.000060 0.000060 0.001534 0.001777 -8.380171 71.020905
34 71.020905 -0.000060 0.000060 0.000334 -0.002323 -106.379684 71.020905
[R_forearm]
33 322.776428 -0.000060 0.000030 0.213295 0.003866 -91.459335 322.776428
34 322.776428 -0.000060 0.000030 0.213295 0.003866 -91.459335 322.776428
[R_front_hand]
33 238.847015 -0.006795 2.210259 -1.531694 0.790216 -51.443054 238.857239
34 238.847015 -0.006795 2.210259 -1.531694 0.790216 -51.443054 238.857239
[R_weapon_bone]
33 155.664093 0.002503 -0.000030 0.003487 0.001180 -90.988930 155.664078
34 155.664093 0.002503 -0.000030 0.003487 0.001180 -90.988930 155.664078
[R_front_hand01_01]
33 87.624611 14.231146 22.918642 -154.633499 -59.950607 61.746044 91.683487
34 87.624611 14.231146 22.918642 -154.633514 -59.950626 61.746063 91.683487
[R_front_hand02_01]
33 89.356956 14.367283 -19.491137 154.602661 58.302864 63.744389 92.579636
34 89.356956 14.367283 -19.491137 154.602661 58.302849 63.744389 92.579636
[R_front_hand03_01]
33 87.286232 -22.307278 -0.143439 0.162155 -0.423168 -75.767921 90.091743
34 87.286232 -22.307278 -0.143439 0.162155 -0.423168 -75.767921 90.091743
[R_front_hand01_02]
33 71.020905 0.000060 0.000119 0.001777 0.001534 8.378541 71.020905
34 71.020905 0.000060 0.000119 0.002323 -0.000334 106.381714 71.020905
[R_front_hand02_02]
33 71.020844 -0.000030 -0.000119 0.001777 0.001534 8.378541 71.020836
34 71.020844 -0.000030 -0.000119 0.002323 -0.000334 106.381714 71.020836
[R_front_hand03_02]
33 71.020905 0.000000 0.000030 0.001777 0.001534 8.378541 71.020905
34 71.020905 0.000000 0.000030 0.002323 -0.000334 106.381714 71.020905
[null_rope01_connect]
33 328.732483 0.000000 -0.000238 -137.703949 -51.907566 174.814346 328.732483
34 328.732483 0.000000 -0.000238 -137.641556 -51.914177 174.985413 328.732483
[Rope1_Seg01]
33 0.000017 0.000000 0.000000 91.151482 41.751381 107.228752 0.000017
34 0.000013 0.000000 0.000000 92.076530 40.542343 108.231529 0.000013
[Rope1_Seg02]
33 139.999863 -0.000179 0.000000 -0.758644 -5.766672 2.605246 139.999863
34 139.999863 -0.000179 0.000000 -0.832784 -5.710417 1.835880 139.999863
[Rope1_Seg03]
33 139.999924 0.000060 -0.000060 -1.681027 -7.599245 2.269770 139.999924
34 139.999924 0.000060 -0.000060 -1.829868 -7.730202 1.280442 139.999924
[Rope1_Seg04]
33 139.999924 -0.000060 -0.000119 -4.038886 -11.159062 1.773713 139.999924
34 139.999924 -0.000060 -0.000119 -4.528371 -11.812413 -0.584541 139.999924
[Rope1_Seg05]
33 139.999832 0.000119 -0.000060 1.409107 -9.621422 15.136408 139.999832
34 139.999832 0.000119 -0.000060 1.360959 -10.584361 16.861010 139.999832
[Rope1_Seg06]
33 139.999954 0.000119 -0.000060 3.647702 -3.570816 7.954164 139.999954
34 139.999954 0.000119 -0.000060 4.570852 -3.696015 9.020487 139.999954
[Rope1_Seg07]
33 139.999985 0.000060 0.000000 1.862996 -1.940453 3.775092 139.999985
34 139.999985 0.000060 0.000000 2.290614 -1.900850 4.046085 139.999985
[Rope1_Seg09]
33 121.602913 0.000119 -0.000089 -89.790619 -1.359656 0.847385 121.602913
34 121.602913 0.000119 -0.000089 -89.790619 -1.359656 0.847385 121.602913
[L_mid_hand01]
33 103.859421 1.038730 8.195221 115.908241 -55.431740 -22.333990 104.187431
34 103.859421 1.038730 8.195221 115.316353 -54.563457 -21.611820 104.187431
[L_mid_hand02]
33 105.572853 -4.139662 -10.864139 -156.773987 39.121307 -55.186157 106.211075
34 105.572853 -4.139662 -10.864139 -156.062469 38.737198 -54.049442 106.211075
[L_mid_hand03]
33 104.641464 17.579376 -3.913581 -10.331478 15.749635 60.015507 106.179977
34 104.641464 17.579376 -3.913581 -10.599154 15.578682 59.035007 106.179977
[null_rope02_connect]
33 328.732849 0.000179 -0.000119 -123.894249 41.110100 18.610706 328.732849
34 328.732849 0.000179 -0.000119 -123.821991 41.254494 18.461859 328.732849
[Rope2_Seg01]
33 0.000095 0.000153 0.000068 -54.954132 28.787493 33.827778 0.000192
34 0.000095 0.000153 0.000070 -54.388687 29.674398 35.875862 0.000193
[Rope2_Seg02]
33 139.999741 -0.000060 -0.000119 -0.921454 -2.649001 3.956733 139.999756
34 139.999741 -0.000060 -0.000119 -0.796832 -2.614926 3.755564 139.999756
[Rope2_Seg03]
33 140.000107 0.000030 0.000000 -1.202055 -4.542672 6.591640 140.000107
34 140.000107 0.000030 0.000000 -1.014598 -4.407410 6.181065 140.000107
[Rope2_Seg04]
33 139.999802 0.000000 -0.000060 -1.705693 -4.888277 19.233852 139.999802
34 139.999802 0.000000 -0.000060 -1.343067 -3.782704 17.969040 139.999802
[Rope2_Seg05]
33 139.999985 -0.000060 0.000119 -1.142605 -24.471918 25.022736 139.999985
34 139.999985 -0.000060 0.000119 -2.108710 -25.635675 21.525259 139.999985
[Rope2_Seg06]
33 139.999893 -0.000030 -0.000119 -18.099625 -22.221203 -13.268880 139.999893
34 139.999893 -0.000030 -0.000119 -16.318140 -21.243425 -11.777195 139.999893
[Rope2_Seg07]
33 139.999893 0.000060 -0.000060 -5.567557 -4.655911 -3.261099 139.999893
34 139.999893 0.000060 -0.000060 -4.802698 -4.612928 -2.569393 139.999893
[Rope2_Seg09]
33 121.338966 0.000089 -0.000060 56.317516 -0.932160 -1.304891 121.338966
34 121.338966 0.000089 -0.000060 56.603703 -0.922200 -1.309224 121.338966
[R_mid_hand01]
33 104.680779 11.144459 -10.335981 -23.787876 42.355026 59.531868 105.778534
34 104.680779 11.144459 -10.335981 -24.654928 41.926003 58.245594 105.778534
[R_mid_hand02]
33 104.070427 2.443552 8.231699 59.320774 -60.914211 27.942533 104.424065
34 104.070427 2.443552 8.231699 60.248264 -60.012959 26.876694 104.424065
[R_mid_hand03]
33 106.028137 -11.221827 -5.996406 -174.815414 14.958104 -67.912041 106.788818
34 106.028137 -11.221827 -5.996406 -174.533356 14.859692 -66.831337 106.788818
[spine02]
33 129.756927 0.001550 0.000119 -0.245322 -4.052060 -4.355547 129.756927
34 129.756927 0.001550 0.000119 -0.245322 -4.052060 -4.355547 129.756927
[spine03]
33 78.613808 0.087175 -4.898802 0.369659 4.260734 -4.885720 78.766342
34 78.613808 0.087163 -4.898802 0.369659 4.260734 -4.885720 78.766342
[pelvis]
33 169.435242 0.051022 0.000000 -0.010007 -0.191417 -1.897554 169.435257
34 169.435242 0.051022 0.000000 -0.010007 -0.191417 -1.897554 169.435257
[null_rope03_connect]
33 -1.257226 -2.466202 137.391083 -96.274292 -88.976646 -150.516464 137.418976
34 -1.257226 -2.466202 137.391083 -95.967041 -88.982582 -150.770203 137.418976
[null_rope04_connect]
33 -1.259640 -2.480268 -137.844437 -96.274292 -88.976646 -150.516464 137.872513
34 -1.259640 -2.480268 -137.844437 -95.967041 -88.982582 -150.770203 137.872513
[Rope3_Seg01]
33 0.000010 0.000004 -0.000017 -163.531311 -31.929966 -24.230225 0.000020
34 0.000010 0.000003 -0.000013 -160.830261 -30.623844 -25.484968 0.000016
[Rope3_Seg02]
33 139.999924 -0.000119 0.000060 -49.471493 2.661886 -29.028519 139.999924
34 139.999924 -0.000119 0.000060 -48.562126 4.433814 -29.007397 139.999924
[Rope3_Seg03]
33 139.999924 -0.000119 0.000119 -47.587143 29.930607 -12.363614 139.999924
34 139.999924 -0.000119 0.000119 -49.312508 38.600842 -14.538850 139.999924
[Rope3_Seg04]
33 139.999924 0.000119 0.000000 -20.239822 28.355537 -3.701975 139.999924
34 139.999924 0.000119 0.000000 -18.101032 30.852037 -6.812040 139.999924
[Rope3_Seg05]
33 139.999924 -0.000238 0.000060 -12.451488 36.007912 -3.682937 139.999924
34 139.999924 -0.000238 0.000060 -11.783276 31.633936 -10.521579 139.999924
[Rope3_Seg06]
33 139.999893 -0.000119 -0.000060 -0.240910 12.182235 2.015284 139.999893
34 139.999893 -0.000119 -0.000060 -0.650606 10.191510 -0.354301 139.999893
[Rope3_Seg07]
33 139.999771 0.000060 -0.000119 0.612089 5.557005 1.150427 139.999771
34 139.999771 0.000060 -0.000119 0.314670 5.067636 0.025474 139.999771
[Rope3_Seg08]
33 139.999985 -0.000060 0.000000 0.694569 2.965954 0.583646 139.999985
34 139.999985 -0.000060 0.000000 0.516142 2.746807 -0.000811 139.999985
[Rope3_Seg09]
33 90.185997 -0.000179 -0.000060 89.795311 -1.358474 -0.848592 90.185997
34 90.185997 -0.000179 -0.000060 89.795311 -1.358474 -0.848592 90.185997
[R_rear_hand01]
33 103.366196 -6.073594 -10.757982 -172.703766 23.626045 -61.678352 104.101845
34 103.366196 -6.073594 -10.757982 -172.703766 23.626053 -61.678371 104.101845
[R_rear_hand02]
33 100.509819 12.039542 -7.992327 -20.492241 33.636757 59.013588 101.543350
34 100.509819 12.039542 -7.992327 -20.492241 33.636757 59.013573 101.543350
[R_rear_hand03]
33 101.539970 5.215704 5.435467 78.216606 -60.982552 14.202847 101.819031
34 101.539970 5.215704 5.435467 78.216591 -60.982544 14.202851 101.819031
[Rope4_Seg01]
33 -0.000025 -0.000093 -0.000144 20.770666 -30.205484 -55.492783 0.000174
34 -0.000026 -0.000099 -0.000146 22.803049 -29.275366 -57.600925 0.000178
[Rope4_Seg02]
33 139.999985 0.000060 0.000119 -49.269356 -76.554726 69.082779 139.999985
34 139.999985 0.000060 0.000119 -48.001781 -72.417656 70.058929 139.999985
[Rope4_Seg03]
33 139.999924 0.000000 -0.000238 44.678749 -41.254940 14.860936 139.999924
34 139.999924 0.000000 -0.000238 33.439301 -36.725311 14.207718 139.999924
[Rope4_Seg04]
33 139.999985 0.000000 0.000119 17.216431 8.986135 23.318235 139.999985
34 139.999985 0.000000 0.000119 19.840242 3.047000 24.916590 139.999985
[Rope4_Seg05]
33 139.999802 -0.000060 -0.000119 8.863315 20.096777 24.558287 139.999802
34 139.999802 -0.000060 -0.000119 10.806813 15.659840 28.280113 139.999802
[Rope4_Seg06]
33 139.999924 0.000000 0.000060 0.782516 7.224777 8.105690 139.999924
34 139.999924 0.000000 0.000060 0.991130 6.196545 9.263158 139.999924
[Rope4_Seg07]
33 139.999802 0.000000 0.000000 0.082737 3.988480 4.459490 139.999802
34 139.999802 0.000000 0.000000 0.104394 3.373756 4.998685 139.999802
[Rope4_Seg08]
33 139.999924 0.000000 0.000119 -1.613046 2.213445 2.473934 139.999924
34 139.999924 0.000000 0.000119 -1.621018 1.861445 2.755721 139.999924
[Rope4_Seg09]
33 90.185791 0.000060 0.000060 -135.615601 2.225816 0.851109 90.185791
34 90.185791 0.000060 0.000060 -135.615601 2.225816 0.851109 90.185791
[L_rear_hand01]
33 101.696655 -8.392275 -7.654577 -19.915020 -33.950905 119.950104 102.329041
34 101.696655 -8.392275 -7.654577 -19.915020 -33.950905 119.950104 102.329041
[L_rear_hand02]
33 102.726799 -1.568258 5.773216 77.862221 61.878510 165.399200 102.900848
34 102.726799 -1.568258 5.773216 77.862221 61.878510 165.399200 102.900848
[L_rear_hand03]
33 104.552910 9.721220 -10.420293 -173.099182 -23.740307 -117.327896 105.519653
34 104.552910 9.721220 -10.420293 -173.099182 -23.740307 -117.327896 105.519653
